HIERARCHY
ROOT hip
{
  OFFSET -20.0142 82.9416 20.4455
  CHANNELS 6 Xposition Yposition Zposition Zrotation Xrotation Yrotation
  JOINT abdomen
  {
    OFFSET 0 20.6881 -0.73152
    CHANNELS 3 Zrotation Xrotation Yrotation
    JOINT chest
    {
      OFFSET 0 11.7043 -0.48768
      CHANNELS 3 Zrotation Xrotation Yrotation
      JOINT neck
      {
        OFFSET 0 22.1894 -2.19456
        CHANNELS 3 Zrotation Xrotation Yrotation
        JOINT head
        {
          OFFSET -0.24384 7.07133 1.2192
          CHANNELS 3 Zrotation Xrotation Yrotation
          JOINT leftEye
          {
            OFFSET 4.14528 8.04674 8.04672
            CHANNELS 3 Zrotation Xrotation Yrotation
            End Site
            {
              OFFSET 1 0 0
            }
          }
          JOINT rightEye
          {
            OFFSET -3.6576 8.04674 8.04672
            CHANNELS 3 Zrotation Xrotation Yrotation
            End Site
            {
              OFFSET 1 0 0
            }
          }
        }
      }
      JOINT rCollar
      {
        OFFSET -2.68224 19.2634 -4.8768
        CHANNELS 3 Zrotation Xrotation Yrotation
        JOINT rShldr
        {
          OFFSET -8.77824 -1.95073 1.46304
          CHANNELS 3 Zrotation Xrotation Yrotation
          JOINT rForeArm
          {
            OFFSET -28.1742 -1.7115 0.48768
            CHANNELS 3 Zrotation Xrotation Yrotation
            JOINT rHand
            {
              OFFSET -22.5879 0.773209 7.07136
              CHANNELS 3 Zrotation Xrotation Yrotation
              JOINT rThumb1
              {
                OFFSET -1.2192 -0.487915 3.41376
                CHANNELS 3 Zrotation Xrotation Yrotation
                JOINT rThumb2
                {
                  OFFSET -3.37035 -0.52449 3.41376
                  CHANNELS 3 Zrotation Xrotation Yrotation
                  End Site
                  {
                    OFFSET -1.78271 -1.18214 1.43049
                  }
                }
              }
              JOINT rIndex1
              {
                OFFSET -7.75947 0.938293 5.60832
                CHANNELS 3 Zrotation Xrotation Yrotation
                JOINT rIndex2
                {
                  OFFSET -2.54057 -0.884171 1.56538
                  CHANNELS 3 Zrotation Xrotation Yrotation
                  End Site
                  {
                    OFFSET -1.62519 -0.234802 1.16502
                  }
                }
              }
              JOINT rMid1
              {
                OFFSET -8.24714 1.18213 3.41376
                CHANNELS 3 Zrotation Xrotation Yrotation
                JOINT rMid2
                {
                  OFFSET -3.10165 -0.590103 1.0647
                  CHANNELS 3 Zrotation Xrotation Yrotation
                  End Site
                  {
                    OFFSET -2.48547 -0.328903 0.83742
                  }
                }
              }
              JOINT rRing1
              {
                OFFSET -8.82822 0.546677 1.51678
                CHANNELS 3 Zrotation Xrotation Yrotation
                JOINT rRing2
                {
                  OFFSET -2.60934 -0.819778 -0.0198488
                  CHANNELS 3 Zrotation Xrotation Yrotation
                  End Site
                  {
                    OFFSET -2.33842 -0.294052 0.168128
                  }
                }
              }
              JOINT rPinky1
              {
                OFFSET -8.27202 -0.0477905 -0.4584
                CHANNELS 3 Zrotation Xrotation Yrotation
                JOINT rPinky2
                {
                  OFFSET -1.82734 -0.647385 -0.700984
                  CHANNELS 3 Zrotation Xrotation Yrotation
                  End Site
                  {
                    OFFSET -1.69225 -0.51767 -0.607171
                  }
                }
              }
            }
          }
        }
      }
      JOINT lCollar
      {
        OFFSET 2.68224 19.2634 -4.8768
        CHANNELS 3 Zrotation Xrotation Yrotation
        JOINT lShldr
        {
          OFFSET 8.77824 -1.95073 1.46304
          CHANNELS 3 Zrotation Xrotation Yrotation
          JOINT lForeArm
          {
            OFFSET 28.1742 -1.7115 0.48768
            CHANNELS 3 Zrotation Xrotation Yrotation
            JOINT lHand
            {
              OFFSET 22.5879 0.773209 7.07136
              CHANNELS 3 Zrotation Xrotation Yrotation
              JOINT lThumb1
              {
                OFFSET 1.2192 -0.487915 3.41376
                CHANNELS 3 Zrotation Xrotation Yrotation
                JOINT lThumb2
                {
                  OFFSET 3.37035 -0.52449 3.41376
                  CHANNELS 3 Zrotation Xrotation Yrotation
                  End Site
                  {
                    OFFSET 1.78271 -1.18214 1.43049
                  }
                }
              }
              JOINT lIndex1
              {
                OFFSET 7.75947 0.938293 5.60832
                CHANNELS 3 Zrotation Xrotation Yrotation
                JOINT lIndex2
                {
                  OFFSET 2.54057 -0.884171 1.56538
                  CHANNELS 3 Zrotation Xrotation Yrotation
                  End Site
                  {
                    OFFSET 1.62519 -0.234802 1.16502
                  }
                }
              }
              JOINT lMid1
              {
                OFFSET 8.24714 1.18213 3.41376
                CHANNELS 3 Zrotation Xrotation Yrotation
                JOINT lMid2
                {
                  OFFSET 3.10165 -0.590103 1.0647
                  CHANNELS 3 Zrotation Xrotation Yrotation
                  End Site
                  {
                    OFFSET 2.48547 -0.328903 0.83742
                  }
                }
              }
              JOINT lRing1
              {
                OFFSET 8.82822 0.546677 1.51678
                CHANNELS 3 Zrotation Xrotation Yrotation
                JOINT lRing2
                {
                  OFFSET 2.60934 -0.819778 -0.0198488
                  CHANNELS 3 Zrotation Xrotation Yrotation
                  End Site
                  {
                    OFFSET 2.33842 -0.294052 0.168128
                  }
                }
              }
              JOINT lPinky1
              {
                OFFSET 8.27202 -0.0477905 -0.4584
                CHANNELS 3 Zrotation Xrotation Yrotation
                JOINT lPinky2
                {
                  OFFSET 1.82734 -0.647385 -0.700984
                  CHANNELS 3 Zrotation Xrotation Yrotation
                  End Site
                  {
                    OFFSET 1.69225 -0.51767 -0.607171
                  }
                }
              }
            }
          }
        }
      }
    }
  }
  JOINT rButtock
  {
    OFFSET -8.77824 4.35084 1.2192
    CHANNELS 3 Zrotation Xrotation Yrotation
    JOINT rThigh
    {
      OFFSET 0 -1.70687 -2.19456
      CHANNELS 3 Zrotation Xrotation Yrotation
      JOINT rShin
      {
        OFFSET 0 -36.8199 0.73152
        CHANNELS 3 Zrotation Xrotation Yrotation
        JOINT rFoot
        {
          OFFSET 0.73152 -45.1104 -5.12064
          CHANNELS 3 Zrotation Xrotation Yrotation
          End Site
          {
            OFFSET -1.1221 -3.69964 12.103
          }
        }
      }
    }
  }
  JOINT lButtock
  {
    OFFSET 8.77824 4.35084 1.2192
    CHANNELS 3 Zrotation Xrotation Yrotation
    JOINT lThigh
    {
      OFFSET 0 -1.70687 -2.19456
      CHANNELS 3 Zrotation Xrotation Yrotation
      JOINT lShin
      {
        OFFSET 0 -36.8199 0.73152
        CHANNELS 3 Zrotation Xrotation Yrotation
        JOINT lFoot
        {
          OFFSET -0.73152 -45.1104 -5.12064
          CHANNELS 3 Zrotation Xrotation Yrotation
          End Site
          {
            OFFSET 1.1221 -3.69964 12.103
          }
        }
      }
    }
  }
}
MOTION
Frames:	5
Frame Time:	0.00833333
37.5602 81.2536 -45.785 1.72199 5.6547 -56.2911 0.0813947 8.86696 4.4558 1.88467 -5.34629 1.28289 -5.48053 -2.0171 3.51488 8.87706 -5.49742 9.06588 -0 0 0 -0 0 0 2.88639e-013 5.01741e-013 -7.79186e-013 77.9973 53.0323 -3.8966 -26.4846 -24.7472 58.8776 -1.63569 -33.7504 -5.38847 1.74386e-009 3.25604e-009 4.26154e-009 2.9026e-009 5.78144e-009 7.39799e-009 1.74387e-009 3.25604e-009 4.26154e-009 7.73091 5.47488 0.417314 1.74386e-009 3.25604e-009 4.26155e-009 2.90554 0.965183 0.102902 1.74387e-009 3.25604e-009 4.26154e-009 10.2786 0.731801 0.0259123 1.74386e-009 3.25604e-009 4.26155e-009 2.22167 -0.733487 -0.20892 2.88601e-013 5.01723e-013 -7.79435e-013 -81.2561 59.9119 0.909105 27.5109 -28.2253 -64.4227 0.262848 -14.4422 2.07429 -1.52388e-009 1.40941e-009 1.96043e-009 -2.6458e-009 2.4383e-009 3.37108e-009 -1.52388e-009 1.4094e-009 1.96046e-009 -7.73091 5.47488 -0.417314 -1.52388e-009 1.4094e-009 1.96043e-009 -2.90554 0.965183 -0.102902 -1.52388e-009 1.4094e-009 1.96043e-009 -10.2786 0.731801 -0.0259123 -1.52388e-009 1.4094e-009 1.96042e-009 -2.22167 -0.733487 0.20892 -2.03217e-016 0 -3.88251e-019 -2.17713 -31.4963 -8.52918 -0.528423 48.6396 1.15228 -7.57799 -12.9821 -19.7945 2.03217e-016 0 3.88251e-019 -0.452032 -16.259 5.40406 0.186018 37.4984 -0.898064 7.30852 -16.8278 18.5754 
37.4238 81.2671 -46.059 1.76213 5.7391 -57.0626 0.0768483 8.684 4.71014 1.87799 -5.33479 1.35638 -5.38597 -2.03699 3.67542 8.74355 -5.53482 9.35428 -0 0 0 -0 0 0 1.91862e-013 3.78569e-013 -4.63334e-013 77.7033 54.4275 -3.42365 -26.5979 -25.077 59.4081 -1.69126 -34.2349 -5.48792 1.48541e-009 2.57465e-009 3.47406e-009 2.47369e-009 4.58401e-009 6.03422e-009 1.48542e-009 2.57465e-009 3.47405e-009 7.73091 5.47488 0.417314 1.48541e-009 2.57466e-009 3.47406e-009 2.90554 0.965183 0.102902 1.48542e-009 2.57466e-009 3.47406e-009 10.2786 0.731801 0.0259123 1.48541e-009 2.57466e-009 3.47407e-009 2.22167 -0.733487 -0.20892 1.91866e-013 3.78552e-013 -4.63553e-013 -81.2752 60.4193 0.927995 27.5319 -28.3127 -64.5616 0.274068 -14.7394 2.11891 -1.16173e-009 2.86961e-010 5.87355e-010 -2.00659e-009 4.96166e-010 1.0017e-009 -1.16173e-009 2.86956e-010 5.87389e-010 -7.73091 5.47488 -0.417314 -1.16173e-009 2.86957e-010 5.87359e-010 -2.90554 0.965183 -0.102902 -1.16173e-009 2.86957e-010 5.87358e-010 -10.2786 0.731801 -0.0259123 -1.16173e-009 2.86959e-010 5.87351e-010 -2.22167 -0.733487 0.20892 -2.03217e-016 0 -3.88251e-019 -1.79922 -31.1668 -8.36566 -0.508946 47.9988 1.13164 -7.49004 -13.4254 -19.2454 2.03217e-016 0 3.88251e-019 -0.148178 -16.3136 5.83096 0.188739 37.5685 -0.897918 7.43145 -16.759 18.9322 
37.284 81.279 -46.3246 1.80884 5.82351 -57.8419 0.0679849 8.48914 4.94817 1.8732 -5.3103 1.42545 -5.28315 -2.05855 3.84482 8.61384 -5.57508 9.6582 -0 0 0 -0 0 0 3.95591e-014 8.14099e-014 -1.26812e-013 77.3054 55.8183 -2.8383 -26.7052 -25.3988 59.9208 -1.74842 -34.7227 -5.58915 1.04607e-009 1.34665e-009 2.09253e-009 1.74813e-009 2.4226e-009 3.6415e-009 1.04608e-009 1.34665e-009 2.09252e-009 7.73091 5.47488 0.417314 1.04607e-009 1.34665e-009 2.09252e-009 2.90554 0.965183 0.102902 1.04608e-009 1.34665e-009 2.09252e-009 10.2786 0.731801 0.0259123 1.04607e-009 1.34665e-009 2.09253e-009 2.22167 -0.733487 -0.20892 3.96251e-014 8.13952e-014 -1.2698e-013 -81.2646 60.9124 0.915434 27.5529 -28.4013 -64.7026 0.2887 -15.1078 2.17451 -5.78349e-010 -3.48639e-010 -5.11013e-010 -9.88343e-010 -6.04064e-010 -8.8968e-010 -5.78354e-010 -3.4864e-010 -5.10974e-010 -7.73091 5.47488 -0.417314 -5.78348e-010 -3.4864e-010 -5.11011e-010 -2.90554 0.965183 -0.102902 -5.78351e-010 -3.4864e-010 -5.11011e-010 -10.2786 0.731801 -0.0259123 -5.78348e-010 -3.48638e-010 -5.11018e-010 -2.22167 -0.733487 0.20892 -2.03217e-016 0 -3.88251e-019 -1.38967 -30.8547 -8.13997 -0.488154 47.286 1.10923 -7.40195 -13.8646 -18.7192 2.03217e-016 0 3.88251e-019 0.151215 -16.3527 6.25824 0.191122 37.6253 -0.898533 7.56159 -16.6814 19.3147 
37.1457 81.2885 -46.5783 1.86168 5.90645 -58.5935 0.0710297 8.28463 5.14993 1.85948 -5.27966 1.48407 -5.17654 -2.07567 4.02003 8.48931 -5.61385 9.97204 -0 0 0 -0 0 0 -1.14255e-013 -2.57643e-013 1.59424e-013 76.8322 57.1744 -2.17112 -26.8059 -25.7101 60.416 -1.79652 -35.1226 -5.67316 5.22401e-010 2.03991e-011 5.6939e-010 8.81657e-010 8.21088e-011 1.0021e-009 5.22413e-010 2.039e-011 5.69371e-010 7.73091 5.47488 0.417314 5.22401e-010 2.0397e-011 5.69381e-010 2.90554 0.965183 0.102902 5.22407e-010 2.03961e-011 5.69382e-010 10.2786 0.731801 0.0259123 5.22396e-010 2.03956e-011 5.69389e-010 2.22167 -0.733487 -0.20892 -1.14132e-013 -2.57655e-013 1.59303e-013 -81.2391 61.3853 0.879083 27.5742 -28.4918 -64.8466 0.306669 -15.5532 2.2419 3.71194e-011 -5.55803e-010 -1.19926e-009 8.02656e-011 -9.62792e-010 -2.07137e-009 3.71147e-011 -5.55801e-010 -1.19922e-009 -7.73091 5.47488 -0.417314 3.71206e-011 -5.55802e-010 -1.19926e-009 -2.90554 0.965183 -0.102902 3.71177e-011 -5.55802e-010 -1.19926e-009 -10.2786 0.731801 -0.0259123 3.71209e-011 -5.558e-010 -1.19927e-009 -2.22167 -0.733487 0.20892 -2.03217e-016 0 -3.88251e-019 -0.992505 -30.5589 -7.94504 -0.467735 46.556 1.08675 -7.31276 -14.2754 -18.2288 2.03217e-016 0 3.88251e-019 0.437419 -16.3882 6.65425 0.193305 37.6759 -0.899575 7.69336 -16.6038 19.7015 
37.0116 81.2954 -46.8157 1.91969 5.98794 -59.282 0.101861 8.07268 5.29552 1.82609 -5.24971 1.52625 -5.0707 -2.0822 4.19798 8.3712 -5.64678 10.2902 -0 0 0 -0 0 0 -2.15563e-013 -5.06498e-013 3.24417e-013 76.3204 58.466 -1.45957 -26.8996 -26.0083 60.8938 -1.82374 -35.3433 -5.72005 1.09379e-011 -9.55738e-010 -6.4292e-010 2.99747e-011 -1.65258e-009 -1.10176e-009 1.0951e-011 -9.5575e-010 -6.42943e-010 7.73091 5.47488 0.417314 1.09384e-011 -9.55742e-010 -6.42933e-010 2.90554 0.965183 0.102902 1.09432e-011 -9.55743e-010 -6.42931e-010 10.2786 0.731801 0.0259123 1.0931e-011 -9.55744e-010 -6.42924e-010 2.22167 -0.733487 -0.20892 -2.15416e-013 -5.06507e-013 3.24317e-013 -81.2139 61.8325 0.827178 27.5958 -28.585 -64.9947 0.328051 -16.0811 2.32196 4.95545e-010 -3.92943e-010 -1.34197e-009 8.70564e-010 -6.80426e-010 -2.31167e-009 4.9554e-010 -3.92939e-010 -1.34193e-009 -7.73091 5.47488 -0.417314 4.95546e-010 -3.92941e-010 -1.34197e-009 -2.90554 0.965183 -0.102902 4.95543e-010 -3.9294e-010 -1.34197e-009 -10.2786 0.731801 -0.0259123 4.95547e-010 -3.92938e-010 -1.34197e-009 -2.22167 -0.733487 0.20892 -2.03217e-016 0 -3.88251e-019 -0.649501 -30.2788 -7.87269 -0.44914 45.8633 1.06567 -7.22264 -14.6333 -17.7873 2.03217e-016 0 3.88251e-019 0.701944 -16.432 6.98743 0.195423 37.7275 -0.900703 7.82149 -16.5351 20.0709 
